<svg width="504" height="277" viewBox="0 0 504 277" fill="none" xmlns="http://www.w3.org/2000/svg">
<path d="M106.944 164.683C103.224 165.078 100.8 167.107 101.589 169.249C104.858 177.929 110.1 186.272 117.259 194.107C119.006 196.023 123.177 196.699 126.447 195.628C129.49 194.614 130.618 192.359 128.983 190.555C122.388 183.34 117.541 175.618 114.553 167.671C113.764 165.641 110.438 164.345 106.944 164.683Z" fill="#F5FAFF"/>
<path d="M374.01 220.824C371.755 219.246 367.697 219.021 364.935 220.261C353.718 225.277 341.43 229.392 328.409 232.492C325.14 233.281 323.505 235.423 324.745 237.34C326.041 239.369 329.987 240.384 333.426 239.595C347.63 236.213 360.876 231.816 373.051 226.348C375.983 224.939 376.433 222.459 374.01 220.824Z" fill="#F5FAFF"/>
<path d="M126.447 100.876C129.491 101.89 133.436 101.327 135.353 99.6358C144.033 91.6881 154.743 84.6422 167.256 78.5546C181.404 71.6778 197.356 66.3794 214.661 62.7155C229.936 59.5026 245.944 57.6989 262.234 57.3043C265.785 57.2479 268.547 55.5569 268.547 53.4714C268.547 51.3294 265.447 49.5821 261.671 49.6384C251.75 49.8639 241.942 50.5966 232.304 51.7803C223.003 52.9641 213.646 49.9202 210.377 44.7345C206.431 38.4778 212.913 31.601 224.187 30.1919C236.587 28.6136 249.27 27.7681 262.122 27.5426C265.673 27.4863 268.547 25.7953 268.547 23.7097C268.547 21.5678 265.447 19.8204 261.671 19.8768C237.94 20.2713 214.661 22.8642 192.452 27.5426C170.244 32.2211 149.557 38.8724 130.956 47.3837C128.025 48.7365 127.574 51.2167 129.941 52.8513C132.252 54.4296 136.311 54.6551 139.073 53.415C149.163 48.8493 159.816 44.7909 171.089 41.3525C181.292 38.2523 193.918 41.127 197.92 47.3837C201.189 52.5695 197.356 58.3189 188.957 60.9118C178.248 64.181 168.102 68.1267 158.745 72.6361C145.16 79.231 133.549 86.8969 124.136 95.4646C122.106 97.3247 123.177 99.7485 126.447 100.876Z" fill="#F5FAFF"/>
<path d="M86.3699 74.6653C84.0025 76.6381 81.6914 78.6109 79.5495 80.6401C77.5767 82.5002 78.6476 84.8676 81.8605 85.995C84.9607 87.0096 88.9064 86.4459 90.7665 84.6986C92.852 82.7821 94.994 80.8656 97.2487 79.0619C99.2779 77.3709 98.6578 75.0598 95.7831 73.8198C92.7393 72.5233 88.5118 72.9179 86.3699 74.6653Z" fill="#F5FAFF"/>
<path d="M268.547 272.738C268.547 270.653 265.729 268.962 262.122 268.905C249.27 268.68 236.587 267.778 224.187 266.256C212.913 264.847 206.375 257.97 210.377 251.713C213.646 246.528 223.003 243.54 232.303 244.668C241.942 245.851 251.75 246.584 261.671 246.809C265.447 246.922 268.547 245.175 268.547 242.977C268.547 240.947 265.729 239.256 262.234 239.144C245.888 238.749 229.936 236.945 214.661 233.732C199.385 230.519 185.124 225.954 172.216 220.204C169.398 218.964 165.396 219.19 163.141 220.768C160.718 222.403 161.169 224.939 164.156 226.236C171.991 229.73 180.333 232.831 189.014 235.48C197.469 238.073 201.245 243.822 197.976 249.008C194.03 255.265 181.404 258.139 171.145 255.039C159.872 251.601 149.219 247.599 139.129 242.977C136.311 241.68 132.252 241.962 129.998 243.54C127.574 245.175 128.025 247.655 131.012 249.008C149.613 257.519 170.3 264.17 192.565 268.849C214.773 273.527 237.997 276.064 261.783 276.515C265.447 276.571 268.547 274.88 268.547 272.738Z" fill="#F5FAFF"/>
<path d="M56.2136 126.635C52.4934 126.241 49.055 127.706 48.4913 129.848C46.9694 135.936 46.2367 142.08 46.2367 148.224C46.2367 154.368 47.0258 160.512 48.4913 166.6C48.9986 168.741 52.4934 170.207 56.2136 169.812C59.7083 169.474 62.1321 167.558 61.6248 165.529C60.2157 159.779 59.4829 153.973 59.4829 148.224C59.4829 142.418 60.2157 136.612 61.6248 130.919C62.1321 128.89 59.7083 126.974 56.2136 126.635Z" fill="#F5FAFF"/>
<path d="M402.926 55.7824C420.061 64.0683 434.66 73.8198 446.328 84.7549C448.188 86.5023 452.134 87.066 455.234 86.0514C458.504 84.9804 459.518 82.5566 457.545 80.6965C445.088 69.0849 429.587 58.7698 411.437 49.9766C398.304 43.6072 384.043 38.1396 368.824 33.6866C365.498 32.7284 361.384 33.5175 359.805 35.4903C358.283 37.3504 359.58 39.6051 362.793 40.507C377.11 44.6218 390.582 49.7511 402.926 55.7824Z" fill="#F5FAFF"/>
<path d="M342.468 263.447C343.764 265.477 347.71 266.491 351.148 265.702C370.933 261.136 389.421 254.936 406.275 247.27C409.206 245.917 409.657 243.437 407.29 241.803C404.979 240.224 400.977 239.999 398.158 241.239C382.319 248.454 364.902 254.316 346.188 258.6C342.862 259.333 341.228 261.531 342.468 263.447Z" fill="#F5FAFF"/>
<path d="M0.12862 179.508C5.53983 195.065 14.8967 209.946 28.0866 223.868C29.834 225.728 34.0051 226.405 37.1616 225.334C40.2618 224.319 41.3891 222.008 39.6418 220.204C27.1283 206.958 18.2224 192.81 13.093 178.042C12.3602 176.013 9.03458 174.66 5.48347 174.998C1.87599 175.393 -0.604148 177.422 0.12862 179.508Z" fill="#F5FAFF"/>
<path d="M490.914 226.687C477.33 239.538 460.533 251.037 440.973 261.014C438.268 262.367 437.93 264.734 440.241 266.369C442.608 268.003 446.892 268.229 449.654 266.763C470.284 256.279 487.927 244.104 502.244 230.632C504.161 228.828 503.09 226.405 499.877 225.334C496.777 224.319 492.775 224.883 490.914 226.687Z" fill="#F5FAFF"/>
<path d="M410.479 13.0563C397.12 8.3779 383.085 4.37584 368.598 1.0502C365.104 0.261066 361.214 1.27567 359.918 3.30487C358.678 5.22134 360.369 7.41965 363.695 8.15242C377.561 11.309 390.976 15.1419 403.715 19.5949C406.759 20.6659 410.761 20.1022 412.677 18.4112C414.65 16.5511 413.692 14.1837 410.479 13.0563Z" fill="#F5FAFF"/>
<path d="M474.442 185.032C470.552 192.021 465.592 198.841 459.504 205.38C457.813 207.184 458.941 209.438 462.041 210.509C465.31 211.58 469.425 210.904 471.172 208.987C482.389 196.925 490.168 184.017 494.226 170.545C496.425 163.218 497.552 155.721 497.552 148.28C497.552 142.136 496.763 135.992 495.297 129.905C494.79 127.763 491.295 126.297 487.575 126.692C484.08 127.03 481.657 128.947 482.164 130.976C483.573 136.725 484.306 142.531 484.306 148.28C484.306 149.802 484.249 151.381 484.137 152.902C483.686 159.61 473.145 164.514 461.703 163.387C452.289 162.428 445.582 157.637 445.92 152.113C446.033 150.817 446.033 149.577 446.033 148.28C446.033 143.884 445.525 139.431 444.511 135.09C444.003 132.949 440.509 131.483 436.789 131.878C433.294 132.216 430.926 134.132 431.377 136.161C432.336 140.22 432.787 144.278 432.787 148.337C432.787 153.635 431.997 158.934 430.419 164.119C427.601 173.42 422.359 182.27 414.749 190.612C413.114 192.416 414.242 194.67 417.286 195.685C420.555 196.756 424.726 196.079 426.473 194.163C431.095 189.09 434.928 183.848 437.916 178.437C440.791 173.194 450.035 170.038 459.392 170.996C470.89 172.011 477.936 178.718 474.442 185.032Z" fill="#F5FAFF"/>
<mask id="mask0_5329_120817" style="mask-type:alpha" maskUnits="userSpaceOnUse" x="132" y="64" width="289" height="167">
<path d="M377.899 88.5878C321.701 56.1205 230.556 56.1205 174.358 88.5878C118.161 121.055 118.161 173.645 174.358 206.113C230.556 238.58 321.701 238.58 377.899 206.113C434.097 173.645 434.097 121.055 377.899 88.5878ZM319.954 170.432C295.773 184.411 256.541 184.411 232.36 170.432C208.179 156.453 208.179 133.794 232.36 119.871C256.541 105.892 295.773 105.892 319.954 119.871C344.135 133.794 344.135 156.453 319.954 170.432Z" fill="url(#paint0_linear_5329_120817)"/>
</mask>
<g mask="url(#mask0_5329_120817)">
<path d="M377.899 88.5878C321.701 56.1205 230.556 56.1205 174.358 88.5878C118.161 121.055 118.161 173.645 174.358 206.113C230.556 238.58 321.701 238.58 377.899 206.113C434.097 173.645 434.097 121.055 377.899 88.5878ZM319.954 170.432C295.773 184.411 256.541 184.411 232.36 170.432C208.179 156.453 208.179 133.794 232.36 119.871C256.541 105.892 295.773 105.892 319.954 119.871C344.135 133.794 344.135 156.453 319.954 170.432Z" fill="#D0D7DD" fill-opacity="0.4"/>
<path d="M415.383 144.729L415.101 139.262L414.819 137.12L413.917 131.708L413.466 129.567L411.945 124.212L411.325 122.126L410.535 120.097L408.45 114.911L407.548 112.995L404.842 107.865L403.828 106.062L400.558 101.158L399.431 99.4667L395.655 94.7318L394.358 93.2099L390.131 88.6442L388.778 87.2914L384.099 82.9512L382.69 81.8238L377.561 77.7091L372.037 73.7634L370.628 72.8615L369.162 72.1288L367.584 71.5087L365.949 71.0578L364.202 70.7759L362.455 70.6632H360.594L358.678 70.8323L356.761 71.1705L354.789 71.6778L352.759 72.3542L350.73 73.1434L348.701 74.1016L346.672 75.2289L344.643 76.469L342.67 77.8218L340.697 79.3437L338.724 80.9783L336.864 82.6693L335.004 84.5295L333.2 86.5023L331.453 88.5315L329.818 90.6171L328.24 92.8154L326.774 95.07L325.365 97.3811L324.125 99.7485L322.941 102.172L321.87 104.54L320.912 106.963L320.067 109.444L319.334 111.867L318.77 114.235L318.263 116.659L317.981 118.97L317.756 121.281L320.292 123.084L322.66 124.944L324.802 126.917L326.662 129.003L328.353 131.088L329.762 133.287L330.945 135.541L331.847 137.796L332.524 140.051L332.918 142.418L333.031 144.729V145.293L332.806 145.575L332.242 146.364L331.227 147.435L329.762 148.844L328.353 149.915L325.985 151.606L323.505 153.128L324.858 152.451L326.38 151.888L327.902 151.493L329.536 151.268L331.227 151.211L332.975 151.324L334.722 151.55L336.582 151.944L338.442 152.564L340.302 153.297L342.219 154.142L344.135 155.157L345.995 156.341L347.912 157.694L349.828 159.103L351.688 160.681L353.492 162.372L355.296 164.176L357.043 166.092L358.678 168.121L360.313 170.207L361.891 172.405L363.356 174.66L364.766 176.971L366.062 179.338L367.246 181.706L368.373 184.186L369.388 186.61L370.29 189.09L371.079 191.57L371.755 193.994L372.319 196.418L372.713 198.841L373.052 201.152L373.221 203.463L373.277 205.718L379.759 201.772L385.734 197.545L391.202 193.092L396.162 188.47L400.615 183.679L404.504 178.718L407.83 173.645L410.592 168.46L412.734 163.161L414.256 157.75L415.157 152.339L415.496 146.927L415.383 144.729Z" fill="url(#paint1_linear_5329_120817)"/>
<path d="M364.766 69.254L358.452 65.872L357.156 65.1956L350.561 62.0955L343.628 59.2207L336.413 56.6279L335.342 56.2897L327.958 54.035L320.349 52.0622L312.514 50.3712L304.509 48.962L296.336 47.891L295.885 47.8346L287.768 47.0455L279.595 46.5946L271.366 46.4255L263.136 46.5946L254.963 47.0455L246.846 47.8346L246.395 47.891L238.222 48.962L230.218 50.3712L222.383 52.0622L214.773 54.035L207.389 56.2897L206.318 56.6279L199.104 59.2207L192.17 62.0955L185.575 65.1956L184.279 65.872L177.966 69.254L172.047 72.9179L173.513 72.1851L175.091 71.5651L176.726 71.1141L178.473 70.8323L180.277 70.7196H182.137L184.054 70.8887L185.97 71.2269L187.943 71.7342L189.972 72.4106L192.001 73.1997L194.031 74.158L196.06 75.2853L198.089 76.5254L200.118 77.8781L202.091 79.4001L204.007 81.0347L205.924 82.7821L207.784 84.6422L209.588 86.615L211.335 88.6442L212.97 90.7862L214.548 92.9845L216.014 95.2392L217.423 97.5502L218.719 99.9176L219.903 102.285L220.974 104.709L221.932 107.133L222.778 109.556L223.51 111.98L224.074 114.404L224.525 116.771L224.863 119.139L225.089 121.45L227.851 119.759L230.782 118.18L233.882 116.715L237.151 115.362L240.589 114.122L244.141 113.051L247.804 112.093L251.581 111.247L255.414 110.571L259.36 110.064L263.362 109.669L267.364 109.444L271.366 109.387L275.368 109.444L279.37 109.669L283.372 110.064L287.318 110.571L291.15 111.247L294.927 112.093L298.591 113.051L302.142 114.122L305.58 115.362L308.85 116.715L311.95 118.18L314.881 119.759L317.643 121.45L317.868 119.139L318.207 116.771L318.658 114.404L319.221 111.98L319.954 109.556L320.799 107.133L321.758 104.709L322.829 102.285L324.012 99.9176L325.309 97.5502L326.718 95.2392L328.184 92.9845L329.762 90.7862L331.396 88.6442L333.144 86.615L334.948 84.6422L336.808 82.7821L338.724 81.0347L340.641 79.4001L342.613 77.8781L344.643 76.5254L346.672 75.2853L348.701 74.158L350.73 73.1997L352.759 72.4106L354.789 71.7342L356.761 71.2269L358.678 70.8887L360.594 70.7196H362.454L364.258 70.8323L366.006 71.1141L367.64 71.5651L369.219 72.1851L370.684 72.9179L364.766 69.254Z" fill="#F5FAFF"/>
<path d="M224.976 118.97L224.638 116.659L224.187 114.235L223.567 111.867L222.834 109.444L222.045 106.963L221.087 104.54L220.016 102.172L218.832 99.7485L217.535 97.3811L216.126 95.07L214.661 92.8154L213.082 90.6171L211.448 88.5315L209.7 86.5023L207.897 84.5295L206.093 82.6693L204.177 80.9783L202.204 79.3437L200.231 77.8218L198.258 76.469L196.229 75.2289L194.2 74.1016L192.17 73.1434L190.141 72.3542L188.168 71.6778L186.196 71.1705L184.223 70.8323L182.306 70.6632H180.502L178.699 70.7759L176.951 71.0578L175.317 71.5087L173.738 72.1288L172.273 72.8615L170.864 73.7634L165.34 77.7091L160.21 81.8238L158.801 82.9512L154.123 87.2914L152.77 88.6442L148.542 93.2099L147.246 94.7318L143.526 99.4667L142.342 101.158L139.129 106.062L138.058 107.865L135.353 112.995L134.451 114.911L132.365 120.097L131.576 122.126L130.956 124.212L129.434 129.567L129.04 131.708L128.081 137.12L127.856 139.262L127.518 144.729L127.461 146.927L127.743 152.339L128.645 157.75L130.223 163.161L132.365 168.46L135.071 173.645L138.396 178.718L142.286 183.679L146.739 188.47L151.699 193.092L157.223 197.545L163.198 201.772L169.624 205.718L169.68 203.463L169.849 201.152L170.187 198.841L170.638 196.418L171.146 193.994L171.822 191.57L172.611 189.09L173.513 186.61L174.528 184.186L175.655 181.706L176.839 179.338L178.135 176.971L179.544 174.66L181.01 172.405L182.588 170.207L184.223 168.121L185.914 166.092L187.605 164.176L189.408 162.372L191.269 160.681L193.129 159.103L194.989 157.694L196.905 156.341L198.822 155.157L200.682 154.142L202.598 153.297L204.458 152.564L206.318 151.944L208.179 151.55L209.982 151.324L211.673 151.211L213.364 151.268L214.999 151.493L216.577 151.888L218.043 152.451L219.452 153.128L216.915 151.606L214.548 149.915L213.195 148.844L211.673 147.435L210.715 146.364L210.095 145.575L209.926 145.293L209.87 144.729L209.982 142.418L210.377 140.051L211.053 137.796L211.955 135.541L213.139 133.287L214.548 131.088L216.239 129.003L218.099 126.917L220.241 124.944L222.608 123.084L225.145 121.281L224.976 118.97Z" fill="url(#paint2_linear_5329_120817)"/>
<path d="M373.221 203.463L373.051 201.152L372.713 198.785L372.262 196.361L371.699 193.937L371.022 191.514L370.233 189.034L369.331 186.553L368.317 184.073L367.189 181.649L366.006 179.226L364.709 176.858L363.3 174.547L361.834 172.293L360.256 170.094L358.622 168.009L356.931 165.98L355.183 164.063L353.379 162.259L351.576 160.568L349.716 158.99L347.855 157.524L345.939 156.228L344.023 155.044L342.106 154.03L340.19 153.128L338.33 152.395L336.469 151.831L334.666 151.437L332.862 151.155L331.115 151.042L329.424 151.099L327.789 151.324L326.211 151.719L324.745 152.282L323.336 152.959L320.348 154.593L317.305 156.059L313.303 157.694L309.752 158.99L305.637 160.23L301.015 161.414L296.28 162.428L291.432 163.274L286.472 163.95L281.737 164.401L276.551 164.683L271.309 164.796L266.067 164.683L260.882 164.401L256.147 163.95L251.186 163.274L246.339 162.428L241.604 161.414L236.982 160.23L232.867 158.99L229.316 157.694L225.314 156.059L222.27 154.593L219.283 152.959L217.874 152.282L216.408 151.719L214.83 151.324L213.195 151.099L211.504 151.042L209.757 151.155L207.953 151.437L206.149 151.831L204.289 152.395L202.429 153.128L200.513 154.03L198.596 155.044L196.68 156.228L194.763 157.524L192.903 158.99L191.043 160.568L189.239 162.259L187.436 164.063L185.688 165.98L183.997 168.009L182.363 170.094L180.784 172.293L179.319 174.547L177.91 176.858L176.613 179.226L175.429 181.649L174.302 184.073L173.288 186.553L172.386 189.034L171.596 191.514L170.92 193.937L170.356 196.361L169.905 198.785L169.567 201.152L169.398 203.463L169.342 205.718L176.219 209.438L183.49 212.877L191.156 216.033L199.16 218.908L207.446 221.501L216.014 223.755L224.807 225.672L233.825 227.25L243.013 228.49L252.314 229.392L261.671 229.899L271.084 230.069L280.497 229.899L289.854 229.392L299.155 228.49L308.342 227.25L317.361 225.672L326.154 223.755L334.722 221.501L343.008 218.908L351.012 216.033L358.678 212.877L365.949 209.438L372.826 205.718L373.221 203.463Z" fill="#F5FAFF"/>
<mask id="mask1_5329_120817" style="mask-type:alpha" maskUnits="userSpaceOnUse" x="127" y="93" width="289" height="138">
<path d="M415.383 144.729L415.101 139.318L414.819 137.12L413.917 131.708L413.466 129.567L411.945 124.212L411.325 122.126L410.535 120.097L408.45 114.855L407.548 112.938L404.899 107.865L403.828 106.062L400.615 101.101L399.431 99.4103L395.711 94.6191L394.415 93.0972L398.135 97.832L401.291 102.68L403.884 107.64L405.913 112.656L407.379 117.786L408.281 122.915L408.563 128.101L408.281 133.287L407.379 138.416L405.913 143.545L403.884 148.562L401.291 153.522L398.135 158.37L394.415 163.105L390.187 167.671L385.452 172.067L380.21 176.295L374.517 180.409L368.373 184.186L361.834 187.737L354.901 191.006L347.63 194.05L340.021 196.812L332.129 199.236L323.956 201.378L315.557 203.182L306.99 204.703L298.253 205.887L289.403 206.733L280.497 207.24L271.535 207.409L262.573 207.24L253.667 206.733L244.817 205.887L236.08 204.703L227.512 203.182L219.114 201.378L210.941 199.236L203.049 196.812L195.44 194.05L188.168 191.006L181.235 187.737L174.697 184.186L168.553 180.409L162.86 176.407L157.618 172.18L152.883 167.783L148.655 163.218L144.935 158.483L141.778 153.635L139.186 148.675L137.156 143.658L135.691 138.529L134.789 133.399L134.507 128.214L134.789 123.028L135.691 117.899L137.156 112.769L139.186 107.753L141.778 102.792L144.935 97.9448L148.655 93.2099L147.359 94.7318L143.639 99.523L142.455 101.214L139.242 106.174L138.171 107.978L135.522 113.051L134.62 114.968L132.534 120.21L131.745 122.239L131.125 124.324L129.603 129.679L129.152 131.821L128.25 137.232L127.969 139.431L127.687 144.842L127.574 147.04L127.856 152.451L128.758 157.863L130.28 163.218L132.422 168.516L135.184 173.702L138.509 178.775L142.398 183.735L146.851 188.526L151.812 193.148L157.279 197.545L163.254 201.772L169.68 205.718L176.557 209.438L183.828 212.877L191.494 216.033L199.498 218.908L207.784 221.501L216.352 223.755L225.145 225.672L234.164 227.25L243.351 228.49L252.652 229.392L262.009 229.899L271.422 230.069L280.835 229.899L290.192 229.392L299.493 228.49L308.681 227.25L317.699 225.672L326.493 223.755L335.06 221.501L343.346 218.908L351.35 216.033L359.016 212.877L366.287 209.438L373.164 205.718L379.59 201.772L385.565 197.545L391.033 193.148L395.993 188.526L400.446 183.735L404.335 178.775L407.661 173.702L410.423 168.516L412.565 163.218L414.086 157.863L414.988 152.451L415.27 147.04L415.383 144.729Z" fill="url(#paint3_linear_5329_120817)"/>
</mask>
<g mask="url(#mask1_5329_120817)">
<path opacity="0.15" d="M415.383 144.729L415.101 139.318L414.819 137.12L413.917 131.708L413.466 129.567L411.945 124.212L411.325 122.126L410.535 120.097L408.45 114.855L407.548 112.938L404.899 107.865L403.828 106.062L400.615 101.101L399.431 99.4103L395.711 94.6191L394.415 93.0972L398.135 97.832L401.291 102.68L403.884 107.64L405.913 112.656L407.379 117.786L408.281 122.915L408.563 128.101L408.281 133.287L407.379 138.416L405.913 143.545L403.884 148.562L401.291 153.522L398.135 158.37L394.415 163.105L390.187 167.671L385.452 172.067L380.21 176.295L374.517 180.409L368.373 184.186L361.834 187.737L354.901 191.006L347.63 194.05L340.021 196.812L332.129 199.236L323.956 201.378L315.557 203.182L306.99 204.703L298.253 205.887L289.403 206.733L280.497 207.24L271.535 207.409L262.573 207.24L253.667 206.733L244.817 205.887L236.08 204.703L227.512 203.182L219.114 201.378L210.941 199.236L203.049 196.812L195.44 194.05L188.168 191.006L181.235 187.737L174.697 184.186L168.553 180.409L162.86 176.407L157.618 172.18L152.883 167.783L148.655 163.218L144.935 158.483L141.778 153.635L139.186 148.675L137.156 143.658L135.691 138.529L134.789 133.399L134.507 128.214L134.789 123.028L135.691 117.899L137.156 112.769L139.186 107.753L141.778 102.792L144.935 97.9448L148.655 93.2099L147.359 94.7318L143.639 99.523L142.455 101.214L139.242 106.174L138.171 107.978L135.522 113.051L134.62 114.968L132.534 120.21L131.745 122.239L131.125 124.324L129.603 129.679L129.152 131.821L128.25 137.232L127.969 139.431L127.687 144.842L127.574 147.04L127.856 152.451L128.758 157.863L130.28 163.218L132.422 168.516L135.184 173.702L138.509 178.775L142.398 183.735L146.851 188.526L151.812 193.148L157.279 197.545L163.254 201.772L169.68 205.718L176.557 209.438L183.828 212.877L191.494 216.033L199.498 218.908L207.784 221.501L216.352 223.755L225.145 225.672L234.164 227.25L243.351 228.49L252.652 229.392L262.009 229.899L271.422 230.069L280.835 229.899L290.192 229.392L299.493 228.49L308.681 227.25L317.699 225.672L326.493 223.755L335.06 221.501L343.346 218.908L351.35 216.033L359.016 212.877L366.287 209.438L373.164 205.718L379.59 201.772L385.565 197.545L391.033 193.148L395.993 188.526L400.446 183.735L404.335 178.775L407.661 173.702L410.423 168.516L412.565 163.218L414.086 157.863L414.988 152.451L415.27 147.04L415.383 144.729Z" fill="url(#paint4_linear_5329_120817)"/>
</g>
<mask id="mask2_5329_120817" style="mask-type:alpha" maskUnits="userSpaceOnUse" x="201" y="85" width="141" height="61">
<path d="M341.317 123.761L340.866 121.112L340.133 118.519L339.062 115.926L337.766 113.446L336.131 110.965L334.271 108.542L332.073 106.174L329.649 103.976L327 101.778L324.125 99.7485L320.969 97.832L317.643 96.0283L314.092 94.3373L310.372 92.8154L306.482 91.4062L302.424 90.1662L298.253 89.0388L293.969 88.1369L289.572 87.3478L285.119 86.7841L280.61 86.3332L276.044 86.0513L271.478 85.995L266.856 86.0513L262.291 86.3332L257.781 86.7841L253.328 87.3478L248.932 88.1369L244.648 89.0388L240.477 90.1662L236.418 91.4062L232.529 92.8154L228.809 94.3373L225.258 96.0283L221.932 97.832L218.832 99.7485L215.901 101.778L213.252 103.976L210.828 106.174L208.629 108.542L206.769 110.965L205.135 113.446L203.838 115.926L202.767 118.519L202.035 121.112L201.584 123.761L201.415 126.41L201.584 129.059L202.035 131.708L202.767 134.301L203.838 136.894L206.657 140.896L208.009 142.531L209.193 144.222L209.757 145.067L209.813 145.124L209.926 145.293L209.87 144.729L209.982 142.418L210.377 140.051L211.053 137.796L211.955 135.541L213.139 133.287L214.548 131.088L216.239 129.003L218.099 126.917L220.241 124.944L222.608 123.084L225.145 121.281L227.907 119.59L230.838 118.011L233.938 116.489L237.264 115.137L240.646 113.953L244.197 112.826L247.861 111.867L251.637 111.078L255.527 110.402L259.416 109.838L263.418 109.444L267.42 109.218L271.478 109.162L275.481 109.218L279.483 109.444L283.485 109.838L287.374 110.402L291.263 111.078L295.04 111.867L298.704 112.826L302.255 113.953L305.693 115.137L308.962 116.489L312.063 118.011L314.994 119.59L317.756 121.281L320.292 123.084L322.66 124.944L324.802 126.917L326.662 129.003L328.353 131.088L329.762 133.287L330.945 135.541L331.847 137.796L332.524 140.051L332.918 142.418L333.031 144.729V145.293L333.144 145.124V145.067L334.666 143.32L336.131 141.911L337.766 139.431L339.062 136.894L340.133 134.301L340.866 131.708L341.317 129.059L341.486 126.41L341.317 123.761Z" fill="url(#paint5_linear_5329_120817)"/>
</mask>
<g mask="url(#mask2_5329_120817)">
<path opacity="0.15" d="M341.317 123.761L340.866 121.112L340.133 118.519L339.062 115.926L337.766 113.446L336.131 110.965L334.271 108.542L332.073 106.174L329.649 103.976L327 101.778L324.125 99.7485L320.969 97.832L317.643 96.0283L314.092 94.3373L310.372 92.8154L306.482 91.4062L302.424 90.1662L298.253 89.0388L293.969 88.1369L289.572 87.3478L285.119 86.7841L280.61 86.3332L276.044 86.0513L271.478 85.995L266.856 86.0513L262.291 86.3332L257.781 86.7841L253.328 87.3478L248.932 88.1369L244.648 89.0388L240.477 90.1662L236.418 91.4062L232.529 92.8154L228.809 94.3373L225.258 96.0283L221.932 97.832L218.832 99.7485L215.901 101.778L213.252 103.976L210.828 106.174L208.629 108.542L206.769 110.965L205.135 113.446L203.838 115.926L202.767 118.519L202.035 121.112L201.584 123.761L201.415 126.41L201.584 129.059L202.035 131.708L202.767 134.301L203.838 136.894L206.657 140.896L208.009 142.531L209.193 144.222L209.757 145.067L209.813 145.124L209.926 145.293L209.87 144.729L209.982 142.418L210.377 140.051L211.053 137.796L211.955 135.541L213.139 133.287L214.548 131.088L216.239 129.003L218.099 126.917L220.241 124.944L222.608 123.084L225.145 121.281L227.907 119.59L230.838 118.011L233.938 116.489L237.264 115.137L240.646 113.953L244.197 112.826L247.861 111.867L251.637 111.078L255.527 110.402L259.416 109.838L263.418 109.444L267.42 109.218L271.478 109.162L275.481 109.218L279.483 109.444L283.485 109.838L287.374 110.402L291.263 111.078L295.04 111.867L298.704 112.826L302.255 113.953L305.693 115.137L308.962 116.489L312.063 118.011L314.994 119.59L317.756 121.281L320.292 123.084L322.66 124.944L324.802 126.917L326.662 129.003L328.353 131.088L329.762 133.287L330.945 135.541L331.847 137.796L332.524 140.051L332.918 142.418L333.031 144.729V145.293L333.144 145.124V145.067L334.666 143.32L336.131 141.911L337.766 139.431L339.062 136.894L340.133 134.301L340.866 131.708L341.317 129.059L341.486 126.41L341.317 123.761Z" fill="url(#paint6_linear_5329_120817)"/>
</g>
</g>
<defs>
<linearGradient id="paint0_linear_5329_120817" x1="132.186" y1="147.358" x2="420.057" y2="147.358" gradientUnits="userSpaceOnUse">
<stop stop-color="#B3B3B3"/>
<stop offset="0.2901" stop-color="#AFAFAF"/>
<stop offset="0.5611" stop-color="#A3A3A3"/>
<stop offset="0.8238" stop-color="#919191"/>
<stop offset="1" stop-color="#808080"/>
</linearGradient>
<linearGradient id="paint1_linear_5329_120817" x1="415.496" y1="70.6632" x2="287.207" y2="163.507" gradientUnits="userSpaceOnUse">
<stop stop-color="#EEF181"/>
<stop offset="0.514718" stop-color="#92DD90"/>
<stop offset="1" stop-color="#4DE9CB"/>
</linearGradient>
<linearGradient id="paint2_linear_5329_120817" x1="225.145" y1="70.6632" x2="96.8793" y2="163.436" gradientUnits="userSpaceOnUse">
<stop stop-color="#EEF181"/>
<stop offset="0.514718" stop-color="#92DD90"/>
<stop offset="1" stop-color="#4DE9CB"/>
</linearGradient>
<linearGradient id="paint3_linear_5329_120817" x1="127.435" y1="161.637" x2="415.473" y2="161.637" gradientUnits="userSpaceOnUse">
<stop stop-color="white"/>
<stop offset="0.1882" stop-color="#FBFBFB"/>
<stop offset="0.3642" stop-color="#F0F0F0"/>
<stop offset="0.5353" stop-color="#DDDDDD"/>
<stop offset="0.7034" stop-color="#C2C2C2"/>
<stop offset="0.8677" stop-color="#A1A1A1"/>
<stop offset="1" stop-color="#808080"/>
</linearGradient>
<linearGradient id="paint4_linear_5329_120817" x1="127.435" y1="161.637" x2="415.473" y2="161.637" gradientUnits="userSpaceOnUse">
<stop stop-color="#999999"/>
<stop offset="0.9647" stop-color="#999999"/>
<stop offset="1" stop-color="#999999"/>
</linearGradient>
<linearGradient id="paint5_linear_5329_120817" x1="201.433" y1="115.65" x2="341.475" y2="115.65" gradientUnits="userSpaceOnUse">
<stop stop-color="white"/>
<stop offset="0.1882" stop-color="#FBFBFB"/>
<stop offset="0.3642" stop-color="#F0F0F0"/>
<stop offset="0.5353" stop-color="#DDDDDD"/>
<stop offset="0.7034" stop-color="#C2C2C2"/>
<stop offset="0.8677" stop-color="#A1A1A1"/>
<stop offset="1" stop-color="#808080"/>
</linearGradient>
<linearGradient id="paint6_linear_5329_120817" x1="201.433" y1="115.65" x2="341.475" y2="115.65" gradientUnits="userSpaceOnUse">
<stop stop-color="#999999"/>
<stop offset="0.9647" stop-color="#999999"/>
<stop offset="1" stop-color="#999999"/>
</linearGradient>
</defs>
</svg>
