<svg width="90" height="90" viewBox="0 0 90 90" fill="none" xmlns="http://www.w3.org/2000/svg">
  <path d="M24.3403 4.7424C27.8757 2.98895 31.4426 1.75953 34.988 0.996989C42.8253 -0.688843 50.5453 -0.134522 57.5269 1.89187C71.417 5.92402 82.3702 15.7884 85.634 25.2817C85.745 25.5927 85.5833 25.9355 85.2729 26.0468C84.9626 26.1581 84.6206 25.9959 84.5099 25.6849C81.1638 16.6405 70.3952 7.47422 56.9754 3.87699C50.2949 2.08612 42.9533 1.69064 35.5194 3.39749C31.0867 4.41511 26.6187 6.17391 22.2437 8.85046C8.13669 17.4167 1.79671 33.0305 2.84872 48.0762C3.71269 60.4291 9.56526 72.423 20.3 79.8283C22.1848 80.897 24.1283 81.7771 26.1096 82.475C30.7736 84.1173 35.6479 84.7468 40.463 84.4398C49.4324 83.8792 58.1816 80.0502 64.9967 73.5066C71.1367 67.6113 75.7161 59.5076 77.416 49.519C78.8982 41.0389 77.9149 33.5842 75.6727 27.3834C72.6215 18.9453 67.2412 12.8223 62.507 9.62238C62.2691 9.4639 62.2044 9.14177 62.3621 8.9033C62.5202 8.66484 62.8416 8.59961 63.0795 8.75809C68.0189 11.9938 73.6893 18.2303 76.953 26.909C79.3542 33.2945 80.4459 40.9995 79.0085 49.7895C77.2641 60.1651 72.5435 68.6142 66.1513 74.7177C59.0435 81.5042 49.8822 85.387 40.5483 85.8994C37.7106 86.0514 34.8558 85.8914 32.036 85.4036C40.1311 87.8661 48.6675 88.0366 56.583 86.1568C62.9991 84.6331 69.0115 81.7675 74.0531 77.6358C85.2663 68.447 91.646 53.0662 87.1442 32.6265C87.0747 32.3261 87.2618 32.0261 87.5611 31.9564C87.8608 31.8868 88.1605 32.0744 88.23 32.3744C93.3338 53.479 86.8912 69.5535 75.4276 79.29C67.6182 85.9224 57.4538 89.6224 46.9561 89.9729C40.1826 90.1989 33.272 89.0114 26.7573 86.3525C10.2256 79.5675 1.21793 64.217 0.115181 48.2675C0.101646 48.0717 0.0893021 47.8757 0.0781479 47.6798L0.00862885 45.8444C-0.27906 30.6109 6.62628 15.2313 20.9016 6.6221C21.5768 6.21796 22.2538 5.83391 22.9323 5.46954L24.3403 4.7424Z" fill="#D0D7DD"/>
  <path d="M9.71301 29.0309C5.48219 39.3114 5.45535 51.3165 9.59388 60.4113C9.71118 60.6722 10.0179 60.7887 10.2782 60.6711C10.5385 60.5536 10.6547 60.2462 10.5374 59.9852C6.60444 51.1248 6.75262 39.4828 10.9397 29.544C14.8561 20.2465 22.3231 12.432 33.3661 9.85869C44.7723 7.18067 55.2159 10.8221 62.2442 18.2237C68.9677 25.304 72.5727 35.8178 70.8967 47.5755C68.7702 62.675 59.5658 72.5627 48.7608 76.5915C36.7034 81.0877 22.6588 78.2969 14.249 67.3039C14.0586 67.0529 13.7001 67.0043 13.4496 67.1952C13.1992 67.3865 13.1507 67.7455 13.3412 67.9968C22.0271 79.5168 36.6526 82.531 49.2502 77.9224C60.541 73.7919 70.2047 63.5379 72.5065 47.8077C74.2869 35.4949 70.5198 24.4629 63.4694 17.0535C56.0546 9.26086 45.0164 5.46498 33.0068 8.33613C21.4961 11.1078 13.7221 19.2889 9.71301 29.0309Z" fill="#D0D7DD"/>
  <path d="M43.3429 17.1781L35.7359 43.0062C34.7801 43.6597 34.4705 44.9523 35.0541 45.9768C35.6682 47.0538 37.039 47.4286 38.1134 46.8131L56.0306 36.0324C56.8892 35.5407 57.1878 34.4431 56.6973 33.5825C56.2071 32.7223 55.1117 32.4226 54.2535 32.9143L39.8339 40.763L45.6576 17.8153C45.833 17.1751 45.4568 16.5124 44.8181 16.3366C44.1794 16.1608 43.5183 16.5379 43.3429 17.1781Z" fill="#92DD90"/>
</svg>
